<?xml version="1.0" encoding="utf-8"?>
<!-- Generator: Adobe Illustrator 21.1.0, SVG Export Plug-In . SVG Version: 6.00 Build 0)  -->
<svg version="1.1" id="Layer_1" xmlns="http://www.w3.org/2000/svg" xmlns:xlink="http://www.w3.org/1999/xlink" x="0px" y="0px"
	 viewBox="0 0 3500 3500" style="enable-background:new 0 0 3500 3500;" xml:space="preserve">
<style type="text/css">
	.st0{fill:#FF3A21;}
	.st1{fill:#FFFFFF;}
</style>
<circle class="st0" cx="1751.1" cy="1752.7" r="1711.3"/>
<g>
	<path class="st1" d="M2302,1613h-350.4c-1.8,0-5.3,1.8-5.3,5.3v115.6c0,1.8,1.8,5.3,5.3,5.3h140.1l-154.2,154.2
		c-78.8-61.3-176.9-98.1-283.8-98.1c-252.3,0-459,206.7-459,459c0,233,175.2,425.7,399.4,455.5v134.9h-138.4c-1.8,0-5.3,1.8-5.3,5.3
		v124.4c0,1.8,1.8,5.3,5.3,5.3h138.4v131.4c0,1.8,1.8,5.3,5.3,5.3H1724c1.8,0,5.3-1.8,5.3-5.3v-131.4h138.4c1.8,0,5.3-1.8,5.3-5.3
		v-124.4c0-1.8-1.8-5.3-5.3-5.3h-138.4v-136.6c217.2-35,383.6-224.2,383.6-452c0-98.1-31.5-189.2-84.1-264.5l152.4-152.4v129.6
		c0,1.8,1.8,5.3,5.3,5.3H2302c1.8,0,5.3-1.8,5.3-5.3v-350.4C2307.3,1614.8,2303.8,1613,2302,1613 M1653.9,2592.2
		c-185.7,0-338.1-152.4-338.1-338.1c0-185.7,150.7-338.1,338.1-338.1c185.7,0,338.1,150.7,338.1,338.1
		C1992,2439.8,1839.6,2592.2,1653.9,2592.2"/>
	<path class="st1" d="M1862.3,2115.8h-408.2c-1.8,0-5.3,1.8-5.3,3.5v99.9c0,1.8,1.8,3.5,5.3,3.5h409.9c1.8,0,5.3-1.8,5.3-3.5v-99.9
		C1867.6,2117.5,1865.8,2115.8,1862.3,2115.8 M1862.3,2292.7h-408.2c-1.8,0-5.3,1.8-5.3,3.5v99.9c0,1.8,1.8,3.5,5.3,3.5h409.9
		c1.8,0,5.3-1.8,5.3-3.5v-99.9C1867.6,2294.4,1865.8,2292.7,1862.3,2292.7"/>
</g>
<g>
	<path class="st1" d="M1027.6,915.1c-55.4,0-93.2,20.2-115.9,55.4V766.4h236.9V653H785.7v461.1h126v-17.6
		c0-47.9,22.7-75.6,60.5-75.6c42.8,0,58,30.2,58,73.1v196.6c0,42.8-15.1,73.1-58,73.1c-47.9,0-63-30.2-63-80.6v-103.3h-126v93.2
		c0,123.5,50.4,204.1,189,204.1s196.6-73.1,196.6-186.5v-194C1168.7,965.5,1103.2,915.1,1027.6,915.1"/>
	<g>
		<path class="st1" d="M1403.5,1109.7h129.8v44.1h-75.9v93.1h53.9v44.1h-53.9v98h75.9v44.1h-129.8V1109.7L1403.5,1109.7z
			 M1619.1,1452.7v-22c-44.1-7.3-61.2-39.2-61.2-83.3v-156.8c0-51.4,24.5-85.7,80.8-85.7s83.3,36.7,83.3,85.7v156.8
			c0,34.3-12.2,63.7-39.2,75.9l39.2,7.3v39.2L1619.1,1452.7L1619.1,1452.7z M1668.1,1359.6v-176.4c0-19.6-7.3-34.3-26.9-34.3
			s-26.9,14.7-26.9,34.3v176.4c0,19.6,7.3,34.3,26.9,34.3S1668.1,1379.2,1668.1,1359.6z M1915.5,1109.7v242.5
			c0,49-22,83.3-75.9,83.3c-56.3,0-80.8-31.8-80.8-83.3v-242.5h53.9v249.9c0,19.6,7.3,31.8,26.9,31.8c19.6,0,26.9-12.2,26.9-31.8
			v-249.9H1915.5z M1942.4,1430.7l61.2-320.9h61.2l61.2,320.9h-56.3l-9.8-58.8h-56.3l-9.8,58.8H1942.4z M2011,1330.2h44.1l-22-129.8
			L2011,1330.2L2011,1330.2z M2153.1,1109.7h53.9v276.8h63.7v44.1h-117.6V1109.7z M2300.1,1109.7h53.9v320.9h-53.9V1109.7z
			 M2383.4,1109.7h144.5v44.1h-44.1v276.8h-53.9v-276.8h-44.1v-44.1H2383.4L2383.4,1109.7z M2662.7,1308.2v122.5h-53.9v-122.5
			l-61.2-198.4h56.3l31.8,122.5l31.8-122.5h51.4L2662.7,1308.2L2662.7,1308.2z"/>
	</g>
	<g>
		<path class="st1" d="M1452.8,804.9h75.9v171.5h-39.2v-34.3c-7.3,24.5-22,39.2-51.4,39.2c-46.5,0-68.6-36.7-68.6-85.7V738.7
			c0-51.4,24.5-85.7,80.8-85.7c58.8,0,78.4,34.3,78.4,80.8v29.4h-49v-31.8c0-19.6-7.3-31.8-26.9-31.8s-26.9,14.7-26.9,34.3v173.9
			c0,19.6,7.3,34.3,26.9,34.3c17.1,0,26.9-9.8,26.9-31.8v-56.3h-24.5v-49H1452.8L1452.8,804.9z M1565.5,655.4h129.8v44.1h-75.9v93.1
			h53.9v44.1h-53.9v98h75.9v44.1h-129.8V655.4L1565.5,655.4z M1773.7,775.5v203.3h-46.5V657.9h53.9l58.8,183.7V657.9h44.1v320.9
			h-46.5L1773.7,775.5z M2082.4,741.2v149.4c0,49-19.6,85.7-78.4,85.7h-83.3V655.4h83.3C2062.8,655.4,2082.4,692.2,2082.4,741.2z
			 M1996.6,932.3c22,0,31.8-12.2,31.8-31.8v-169c0-19.6-7.3-31.8-31.8-31.8h-22v232.7H1996.6z M2119.1,655.4h129.8v44.1H2173v93.1
			h53.9v44.1H2173v98h75.9v44.1h-129.8V655.4L2119.1,655.4z M2334.7,829.4v147h-53.9V655.4h78.4c53.9,0,73.5,26.9,73.5,71v41.6
			c0,34.3-12.2,53.9-44.1,61.2l51.4,147h-56.3L2334.7,829.4L2334.7,829.4z M2334.7,699.5V800h17.1c19.6,0,26.9-9.8,26.9-26.9v-46.5
			c0-17.1-7.3-26.9-26.9-26.9H2334.7z"/>
	</g>
</g>
</svg>
